<mxfile host="app.diagrams.net" modified="2022-11-06T00:37:24.670Z" agent="5.0 (Windows NT 10.0; Win64; x64) AppleWebKit/537.36 (KHTML, like Gecko) Chrome/107.0.0.0 Safari/537.36" etag="72BHeY0WMprcKAi7oLeB" version="20.5.2" type="github">
  <diagram id="kgpKYQtTHZ0yAKxKKP6v" name="Page-1">
    <mxGraphModel dx="1384" dy="695" grid="1" gridSize="10" guides="1" tooltips="1" connect="1" arrows="1" fold="1" page="1" pageScale="1" pageWidth="850" pageHeight="1100" math="0" shadow="0">
      <root>
        <mxCell id="0" />
        <mxCell id="1" parent="0" />
        <mxCell id="3nuBFxr9cyL0pnOWT2aG-1" value="User" style="shape=umlLifeline;perimeter=lifelinePerimeter;container=1;collapsible=0;recursiveResize=0;rounded=0;shadow=0;strokeWidth=1;" parent="1" vertex="1">
          <mxGeometry x="120" y="80" width="100" height="440" as="geometry" />
        </mxCell>
        <mxCell id="3nuBFxr9cyL0pnOWT2aG-2" value="" style="points=[];perimeter=orthogonalPerimeter;rounded=0;shadow=0;strokeWidth=1;" parent="3nuBFxr9cyL0pnOWT2aG-1" vertex="1">
          <mxGeometry x="45" y="70" width="10" height="330" as="geometry" />
        </mxCell>
        <mxCell id="3nuBFxr9cyL0pnOWT2aG-5" value=":Control Unit" style="shape=umlLifeline;perimeter=lifelinePerimeter;container=1;collapsible=0;recursiveResize=0;rounded=0;shadow=0;strokeWidth=1;" parent="1" vertex="1">
          <mxGeometry x="300" y="80" width="100" height="440" as="geometry" />
        </mxCell>
        <mxCell id="3nuBFxr9cyL0pnOWT2aG-6" value="" style="points=[];perimeter=orthogonalPerimeter;rounded=0;shadow=0;strokeWidth=1;" parent="3nuBFxr9cyL0pnOWT2aG-5" vertex="1">
          <mxGeometry x="45" y="80" width="10" height="280" as="geometry" />
        </mxCell>
        <mxCell id="OGmSQRtVbe0OUmzK19jp-7" value="initiate" style="verticalAlign=bottom;endArrow=block;entryX=0.1;entryY=0;shadow=0;strokeWidth=1;entryDx=0;entryDy=0;entryPerimeter=0;" edge="1" parent="3nuBFxr9cyL0pnOWT2aG-5" target="OGmSQRtVbe0OUmzK19jp-4">
          <mxGeometry x="-0.0066" y="10" relative="1" as="geometry">
            <mxPoint x="55" y="120" as="sourcePoint" />
            <mxPoint x="225" y="120" as="targetPoint" />
            <mxPoint as="offset" />
          </mxGeometry>
        </mxCell>
        <mxCell id="3nuBFxr9cyL0pnOWT2aG-9" value="update user" style="verticalAlign=bottom;endArrow=block;entryX=1;entryY=0;shadow=0;strokeWidth=1;" parent="3nuBFxr9cyL0pnOWT2aG-5" edge="1">
          <mxGeometry x="0.0303" y="-2" relative="1" as="geometry">
            <mxPoint x="45" y="360" as="sourcePoint" />
            <mxPoint x="-120" y="360" as="targetPoint" />
            <mxPoint as="offset" />
          </mxGeometry>
        </mxCell>
        <mxCell id="3nuBFxr9cyL0pnOWT2aG-8" value="start" style="verticalAlign=bottom;endArrow=block;entryX=0;entryY=0;shadow=0;strokeWidth=1;" parent="1" source="3nuBFxr9cyL0pnOWT2aG-2" target="3nuBFxr9cyL0pnOWT2aG-6" edge="1">
          <mxGeometry relative="1" as="geometry">
            <mxPoint x="275" y="160" as="sourcePoint" />
          </mxGeometry>
        </mxCell>
        <mxCell id="OGmSQRtVbe0OUmzK19jp-1" value="" style="shape=umlActor;verticalLabelPosition=bottom;verticalAlign=top;html=1;outlineConnect=0;" vertex="1" parent="1">
          <mxGeometry x="155" y="20" width="30" height="60" as="geometry" />
        </mxCell>
        <mxCell id="OGmSQRtVbe0OUmzK19jp-3" value=":TSRS" style="shape=umlLifeline;perimeter=lifelinePerimeter;container=1;collapsible=0;recursiveResize=0;rounded=0;shadow=0;strokeWidth=1;" vertex="1" parent="1">
          <mxGeometry x="460" y="80" width="100" height="440" as="geometry" />
        </mxCell>
        <mxCell id="OGmSQRtVbe0OUmzK19jp-4" value="" style="points=[];perimeter=orthogonalPerimeter;rounded=0;shadow=0;strokeWidth=1;" vertex="1" parent="OGmSQRtVbe0OUmzK19jp-3">
          <mxGeometry x="45" y="120" width="10" height="160" as="geometry" />
        </mxCell>
        <mxCell id="OGmSQRtVbe0OUmzK19jp-8" value="check database" style="verticalAlign=bottom;endArrow=block;entryX=-0.269;entryY=0.007;shadow=0;strokeWidth=1;entryDx=0;entryDy=0;entryPerimeter=0;" edge="1" parent="OGmSQRtVbe0OUmzK19jp-3" target="OGmSQRtVbe0OUmzK19jp-6">
          <mxGeometry relative="1" as="geometry">
            <mxPoint x="55" y="159.23" as="sourcePoint" />
            <mxPoint x="225" y="159.23" as="targetPoint" />
          </mxGeometry>
        </mxCell>
        <mxCell id="OGmSQRtVbe0OUmzK19jp-5" value=":TMA Database" style="shape=umlLifeline;perimeter=lifelinePerimeter;container=1;collapsible=0;recursiveResize=0;rounded=0;shadow=0;strokeWidth=1;" vertex="1" parent="1">
          <mxGeometry x="620" y="80" width="100" height="440" as="geometry" />
        </mxCell>
        <mxCell id="OGmSQRtVbe0OUmzK19jp-6" value="" style="points=[];perimeter=orthogonalPerimeter;rounded=0;shadow=0;strokeWidth=1;" vertex="1" parent="OGmSQRtVbe0OUmzK19jp-5">
          <mxGeometry x="45" y="160" width="10" height="80" as="geometry" />
        </mxCell>
        <mxCell id="OGmSQRtVbe0OUmzK19jp-9" value="share sign data" style="verticalAlign=bottom;endArrow=block;shadow=0;strokeWidth=1;" edge="1" parent="OGmSQRtVbe0OUmzK19jp-5">
          <mxGeometry relative="1" as="geometry">
            <mxPoint x="45" y="240" as="sourcePoint" />
            <mxPoint x="-100" y="240" as="targetPoint" />
          </mxGeometry>
        </mxCell>
        <mxCell id="OGmSQRtVbe0OUmzK19jp-10" value="send data" style="verticalAlign=bottom;endArrow=block;shadow=0;strokeWidth=1;" edge="1" parent="1">
          <mxGeometry relative="1" as="geometry">
            <mxPoint x="505" y="359.2" as="sourcePoint" />
            <mxPoint x="360" y="359.2" as="targetPoint" />
          </mxGeometry>
        </mxCell>
        <mxCell id="OGmSQRtVbe0OUmzK19jp-12" value="" style="curved=1;endArrow=classic;html=1;rounded=0;" edge="1" parent="1">
          <mxGeometry width="50" height="50" relative="1" as="geometry">
            <mxPoint x="354" y="401" as="sourcePoint" />
            <mxPoint x="354" y="421" as="targetPoint" />
            <Array as="points">
              <mxPoint x="374" y="401" />
              <mxPoint x="374" y="421" />
            </Array>
          </mxGeometry>
        </mxCell>
        <mxCell id="OGmSQRtVbe0OUmzK19jp-15" value="take action" style="text;html=1;strokeColor=none;fillColor=none;align=center;verticalAlign=middle;whiteSpace=wrap;rounded=0;" vertex="1" parent="1">
          <mxGeometry x="360" y="380" width="80" height="30" as="geometry" />
        </mxCell>
        <mxCell id="OGmSQRtVbe0OUmzK19jp-16" value="&lt;font style=&quot;font-size: 16px;&quot;&gt;Sequence Diagram for Detecting Traffic signs&lt;/font&gt;" style="text;html=1;strokeColor=none;fillColor=none;align=center;verticalAlign=middle;whiteSpace=wrap;rounded=0;" vertex="1" parent="1">
          <mxGeometry x="240" y="535" width="400" height="30" as="geometry" />
        </mxCell>
      </root>
    </mxGraphModel>
  </diagram>
</mxfile>
